<?xml version="1.0" encoding="UTF-8"?>
<!DOCTYPE svg PUBLIC "-//W3C//DTD SVG 1.1//EN" "http://www.w3.org/Graphics/SVG/1.1/DTD/svg11.dtd">
<svg xmlns="http://www.w3.org/2000/svg" version="1.1" width="2517px" height="1774px" style="shape-rendering:geometricPrecision; text-rendering:geometricPrecision; image-rendering:optimizeQuality; fill-rule:evenodd; clip-rule:evenodd" xmlns:xlink="http://www.w3.org/1999/xlink">
<g><path style="opacity:0.94" fill="#fefffe" d="M 854.5,49.5 C 960.198,49.4493 1065.86,51.2827 1171.5,55C 1347.54,63.2687 1523.54,72.2687 1699.5,82C 1801.51,85.4084 1903.51,89.075 2005.5,93C 2073.78,98.5385 2142.12,103.372 2210.5,107.5C 2216.91,106.482 2223.24,104.982 2229.5,103C 2234.14,102.683 2238.64,102.516 2243,102.5C 2279.98,107.021 2316.65,110.687 2353,113.5C 2359.12,114.608 2365.29,115.608 2371.5,116.5C 2372.09,116.291 2372.59,115.957 2373,115.5C 2375.67,116.167 2378.33,116.833 2381,117.5C 2385.08,116.371 2389.25,116.204 2393.5,117C 2406.64,119.877 2419.64,122.543 2432.5,125C 2443.87,131.883 2450.03,142.05 2451,155.5C 2452.78,170.449 2453.95,185.449 2454.5,200.5C 2453.05,249.18 2451.21,297.846 2449,346.5C 2448.72,380.166 2448.89,413.833 2449.5,447.5C 2449.32,478.505 2448.82,509.505 2448,540.5C 2442.9,647.126 2438.9,753.792 2436,860.5C 2433.11,1128.19 2434.28,1395.85 2439.5,1663.5C 2439.03,1673.83 2438.53,1684.17 2438,1694.5C 2436.66,1698.51 2434.49,1702.01 2431.5,1705C 2422.37,1708.06 2414.37,1712.89 2407.5,1719.5C 2406.5,1718.83 2405.5,1718.17 2404.5,1717.5C 2402.66,1718.92 2400.66,1720.09 2398.5,1721C 2385.72,1722.35 2373.05,1724.18 2360.5,1726.5C 2344.76,1724.05 2328.93,1722.38 2313,1721.5C 2302.68,1724.38 2292.52,1723.88 2282.5,1720C 2250.17,1717.89 2217.84,1715.89 2185.5,1714C 2113.17,1707.93 2040.84,1701.93 1968.5,1696C 1777.55,1688.71 1586.55,1683.38 1395.5,1680C 1172.66,1678.09 949.83,1675.93 727,1673.5C 691.877,1673.85 656.877,1673.85 622,1673.5C 468.334,1676.22 315,1678.22 162,1679.5C 160.676,1678.12 159.343,1677.79 158,1678.5C 154.534,1677.8 151.034,1677.13 147.5,1676.5C 144.895,1677.71 142.062,1677.38 139,1675.5C 123.646,1677.97 113.313,1671.63 108,1656.5C 106.672,1648.54 105.672,1640.54 105,1632.5C 101.742,1561.7 100.242,1490.7 100.5,1419.5C 100.667,1393.17 100.833,1366.83 101,1340.5C 103.029,1278.17 105.029,1215.83 107,1153.5C 107.607,1108.67 108.107,1063.83 108.5,1019C 107.218,799.624 104.552,580.458 100.5,361.5C 100.424,285.109 102.424,208.776 106.5,132.5C 106.333,130.5 106.167,128.5 106,126.5C 91.6347,114.739 89.3014,101.073 99,85.5C 109.994,75.1123 123.16,69.9456 138.5,70C 188.933,68.2178 239.267,68.0512 289.5,69.5C 477.949,61.6258 666.282,54.9591 854.5,49.5 Z M 1742.5,131.5 C 1825.51,132.526 1908.51,134.026 1991.5,136C 2033.84,138.619 2076.17,141.286 2118.5,144C 2115.58,149.091 2114.08,154.591 2114,160.5C 2113.52,197.147 2113.35,233.647 2113.5,270C 2114.19,272.919 2115.19,275.752 2116.5,278.5C 2116.17,281.833 2115.83,285.167 2115.5,288.5C 2117.74,301.002 2119.74,313.336 2121.5,325.5C 2121.17,327.5 2120.83,329.5 2120.5,331.5C 2123.26,342.898 2125.26,354.231 2126.5,365.5C 2126.17,402.833 2125.83,440.167 2125.5,477.5C 2126.18,484.191 2128.02,490.524 2131,496.5C 2131.19,506.88 2131.69,517.213 2132.5,527.5C 2132.29,528.086 2131.96,528.586 2131.5,529C 2132.73,533.427 2133.73,537.927 2134.5,542.5C 2133.9,550.088 2133.57,557.588 2133.5,565C 2134.34,570.725 2135.34,576.391 2136.5,582C 2136.47,598.679 2136.47,615.346 2136.5,632C 2135.82,651.624 2135.16,671.291 2134.5,691C 2134.82,701.35 2135.16,711.683 2135.5,722C 2133.32,726.908 2132.15,732.074 2132,737.5C 2131.67,752.833 2131.33,768.167 2131,783.5C 2129.93,787.084 2129.26,790.75 2129,794.5C 2128.67,845.5 2128.33,896.5 2128,947.5C 2127.16,951.373 2126.33,955.207 2125.5,959C 2126.68,1059.18 2126.68,1159.35 2125.5,1259.5C 2126.33,1264.15 2127.17,1268.82 2128,1273.5C 2128.18,1283.08 2128.68,1292.58 2129.5,1302C 2129.44,1334.27 2128.77,1368.6 2127.5,1405C 2127.48,1420.54 2127.81,1436.21 2128.5,1452C 2125.67,1468.29 2123.01,1484.62 2120.5,1501C 2120.94,1503.16 2121.27,1505.33 2121.5,1507.5C 2119.8,1519.85 2117.8,1532.35 2115.5,1545C 2115.94,1547.16 2116.27,1549.33 2116.5,1551.5C 2115.02,1555.35 2114.18,1559.35 2114,1563.5C 2114.19,1574.88 2113.02,1586.05 2110.5,1597C 2110.48,1611.48 2110.82,1625.82 2111.5,1640C 2068.47,1632.87 2025.14,1627.54 1981.5,1624C 1845.17,1614.28 1708.84,1604.61 1572.5,1595C 1522.86,1592.43 1473.2,1590.76 1423.5,1590C 1356,1589.83 1288.5,1589.67 1221,1589.5C 1076.26,1588.9 931.76,1590.4 787.5,1594C 666.238,1598.49 545.238,1606.83 424.5,1619C 364.484,1625.57 304.484,1632.07 244.5,1638.5C 243.794,1636.23 243.961,1633.9 245,1631.5C 266.852,1556.94 292.852,1483.94 323,1412.5C 380.431,1273.97 441.431,1136.97 506,1001.5C 538.147,1071.96 571.813,1141.63 607,1210.5C 643.254,1276.01 679.254,1341.67 715,1407.5C 734.333,1440.83 753.667,1474.17 773,1507.5C 784.278,1526.78 797.112,1544.94 811.5,1562C 816.956,1566.78 822.956,1570.78 829.5,1574C 850.054,1577.11 859.22,1568.28 857,1547.5C 845.056,1513.94 831.722,1480.94 817,1448.5C 772.561,1349.95 726.228,1252.29 678,1155.5C 637.38,1067.76 596.88,979.924 556.5,892C 580.787,839.257 604.954,786.424 629,733.5C 675.494,626.18 721.16,518.513 766,410.5C 779.169,376.49 791.502,342.156 803,307.5C 816.19,258.739 829.69,210.073 843.5,161.5C 924.851,159.591 1006.18,157.091 1087.5,154C 1305.83,141.527 1524.16,134.027 1742.5,131.5 Z M 132.5,138.5 C 152.845,143.947 173.512,147.78 194.5,150C 235.068,154.377 275.734,157.377 316.5,159C 476.494,161.6 636.494,162.6 796.5,162C 783.95,199.698 771.783,237.531 760,275.5C 752.944,294.611 745.611,313.611 738,332.5C 666.221,496.504 595.221,660.837 525,825.5C 495.821,768.812 466.821,711.812 438,654.5C 402.2,587.559 364.866,521.559 326,456.5C 288.416,397.002 251.083,337.335 214,277.5C 192,238.833 170,200.167 148,161.5C 144.354,154.855 139.354,149.522 133,145.5C 132.503,143.19 132.337,140.857 132.5,138.5 Z M 138.5,197.5 C 152.74,229.023 166.907,260.69 181,292.5C 212.426,356.685 244.426,420.685 277,484.5C 306.138,545.777 334.471,607.444 362,669.5C 399.675,758.517 438.175,847.183 477.5,935.5C 398.003,1114.51 326.837,1296.84 264,1482.5C 248.033,1534.37 235.533,1587.03 226.5,1640.5C 217.452,1641.13 208.452,1642.13 199.5,1643.5C 202.384,1623.94 204.218,1604.27 205,1584.5C 206.199,1469.27 208.866,1354.27 213,1239.5C 214.586,988.047 201.253,737.38 173,487.5C 160.074,390.995 148.574,294.328 138.5,197.5 Z"/></g>
<g><path style="opacity:0.914" fill="#fefffe" d="M 1401.5,227.5 C 1409.61,227.306 1415.78,230.639 1420,237.5C 1423.87,249.349 1425.37,261.516 1424.5,274C 1422.74,314.502 1420.91,355.002 1419,395.5C 1417.47,466.826 1417.14,538.16 1418,609.5C 1419.63,671.164 1421.13,732.831 1422.5,794.5C 1421.32,850.522 1419.49,906.522 1417,962.5C 1416.77,1052.01 1415.93,1141.51 1414.5,1231C 1414.67,1251.5 1414.83,1272 1415,1292.5C 1417.39,1321.48 1419.39,1350.48 1421,1379.5C 1421.67,1401.17 1421.67,1422.83 1421,1444.5C 1420.75,1447.89 1420.25,1451.22 1419.5,1454.5C 1531.87,1455.49 1644.2,1459.99 1756.5,1468C 1816.44,1474.73 1876.44,1480.73 1936.5,1486C 1942.55,1486.17 1946.55,1489.01 1948.5,1494.5C 1947.36,1497.47 1945.36,1499.64 1942.5,1501C 1903.43,1507.23 1864.09,1510.9 1824.5,1512C 1749.49,1514.62 1674.49,1517.62 1599.5,1521C 1523.44,1522.68 1447.44,1524.34 1371.5,1526C 1363.96,1523.05 1356.63,1519.71 1349.5,1516C 1341,1508.85 1336.5,1499.68 1336,1488.5C 1327.23,1470.11 1321.57,1450.77 1319,1430.5C 1315.08,1387.19 1311.41,1343.86 1308,1300.5C 1307.33,1275.17 1307.33,1249.83 1308,1224.5C 1311.22,1140.19 1313.56,1055.86 1315,971.5C 1319.5,913.845 1323.83,856.179 1328,798.5C 1329.85,719.787 1332.85,641.12 1337,562.5C 1343.04,471.228 1355.71,380.894 1375,291.5C 1379.18,274.453 1383.51,257.453 1388,240.5C 1390.44,233.888 1394.94,229.555 1401.5,227.5 Z"/></g>
<g><path style="opacity:0.902" fill="#fefffe" d="M 982.5,550.5 C 1017.28,549.573 1051.94,551.073 1086.5,555C 1100.58,556.185 1113.91,559.852 1126.5,566C 1133.85,574.055 1134.35,582.555 1128,591.5C 1121.31,596.426 1113.81,599.593 1105.5,601C 1088.83,604.317 1072,605.817 1055,605.5C 1033.15,604.749 1011.32,603.582 989.5,602C 952.824,601.104 916.157,600.937 879.5,601.5C 883.198,625.347 885.365,649.347 886,673.5C 886.476,718.505 886.476,763.505 886,808.5C 896.08,806.487 906.08,804.154 916,801.5C 917.167,802.667 918.333,803.833 919.5,805C 940.523,805.141 961.523,805.808 982.5,807C 995.286,808.455 1002.95,815.455 1005.5,828C 1005.15,842.682 997.819,851.682 983.5,855C 975.393,856.419 967.227,857.253 959,857.5C 938.618,856.803 918.451,855.803 898.5,854.5C 885.576,855.562 880.743,862.229 884,874.5C 883.771,936.664 881.938,998.998 878.5,1061.5C 911.124,1058.54 943.791,1056.04 976.5,1054C 1022.17,1053.7 1067.84,1053.7 1113.5,1054C 1124.19,1053.07 1134.86,1051.9 1145.5,1050.5C 1157.16,1050.32 1166.66,1054.66 1174,1063.5C 1180.43,1078.55 1176.6,1090.38 1162.5,1099C 1150.52,1106.25 1137.52,1109.91 1123.5,1110C 1107.83,1110.67 1092.17,1110.67 1076.5,1110C 1010.86,1106.05 945.195,1102.72 879.5,1100C 872.4,1099.34 865.4,1098.18 858.5,1096.5C 842.866,1103.3 829.699,1099.97 819,1086.5C 816.163,1081.83 814.163,1076.83 813,1071.5C 811.22,1061.24 810.22,1050.91 810,1040.5C 809.987,1014.47 810.987,988.471 813,962.5C 821.362,874.937 831.695,787.604 844,700.5C 847.494,669.576 849.994,638.576 851.5,607.5C 841.777,606.589 837.944,601.256 840,591.5C 841,589.5 842,587.5 843,585.5C 849.054,580.088 854.888,574.588 860.5,569C 877.145,564.595 894.145,560.928 911.5,558C 935.222,554.562 958.889,552.062 982.5,550.5 Z"/></g>
<g><path style="opacity:0.869" fill="#fefffe" d="M 1911.5,550.5 C 1938.47,548.657 1955.64,560.657 1963,586.5C 1965.98,612.599 1956.81,633.099 1935.5,648C 1910.05,660.909 1888.21,656.409 1870,634.5C 1857.07,612.583 1858.07,591.25 1873,570.5C 1878.16,563.839 1884.66,559.005 1892.5,556C 1899.15,554.835 1905.48,553.002 1911.5,550.5 Z"/></g>
<g><path style="opacity:0.011" fill="#fefffe" d="M 1942.5,706.5 C 1944.72,707.203 1946.55,708.536 1948,710.5C 1950.16,712.817 1951.66,715.484 1952.5,718.5C 1948.82,714.817 1945.49,710.817 1942.5,706.5 Z"/></g>
<g><path style="opacity:0.912" fill="#fefffe" d="M 1904.5,708.5 C 1926.27,706.46 1940.44,715.793 1947,736.5C 1949.92,748.361 1952.09,760.361 1953.5,772.5C 1943.97,850.723 1932.8,928.723 1920,1006.5C 1914.98,1034.93 1907.31,1062.59 1897,1089.5C 1892.81,1098.2 1885.98,1103.2 1876.5,1104.5C 1864.8,1102.97 1858.3,1096.3 1857,1084.5C 1856.5,1078.5 1856,1072.5 1855.5,1066.5C 1857.28,1013.74 1858.45,961.077 1859,908.5C 1859.92,860.291 1863.59,812.291 1870,764.5C 1871.71,744.665 1879.21,727.498 1892.5,713C 1896.86,712.162 1900.86,710.662 1904.5,708.5 Z"/></g>
<g><path style="opacity:0.011" fill="#fefffe" d="M 1955.5,739.5 C 1957.38,740.659 1957.88,742.326 1957,744.5C 1955.99,742.975 1955.49,741.308 1955.5,739.5 Z"/></g>
</svg>
